<mxfile host="app.diagrams.net" agent="Mozilla/5.0 (Windows NT 10.0; Win64; x64) AppleWebKit/537.36 (KHTML, like Gecko) Chrome/140.0.0.0 Safari/537.36" version="28.2.1">
  <diagram id="C5RBs43oDa-KdzZeNtuy" name="Page-1">
    <mxGraphModel dx="1042" dy="527" grid="1" gridSize="10" guides="1" tooltips="1" connect="1" arrows="1" fold="1" page="1" pageScale="1" pageWidth="827" pageHeight="1169" math="0" shadow="0">
      <root>
        <mxCell id="WIyWlLk6GJQsqaUBKTNV-0" />
        <mxCell id="WIyWlLk6GJQsqaUBKTNV-1" parent="WIyWlLk6GJQsqaUBKTNV-0" />
        <mxCell id="oiKYJzelcAts1kUPNvWA-21" style="edgeStyle=orthogonalEdgeStyle;rounded=0;orthogonalLoop=1;jettySize=auto;html=1;exitX=1;exitY=0.5;exitDx=0;exitDy=0;entryX=0;entryY=0.5;entryDx=0;entryDy=0;" edge="1" parent="WIyWlLk6GJQsqaUBKTNV-1" source="oiKYJzelcAts1kUPNvWA-0" target="oiKYJzelcAts1kUPNvWA-2">
          <mxGeometry relative="1" as="geometry" />
        </mxCell>
        <mxCell id="oiKYJzelcAts1kUPNvWA-0" value="Geography" style="rounded=1;whiteSpace=wrap;html=1;" vertex="1" parent="WIyWlLk6GJQsqaUBKTNV-1">
          <mxGeometry x="240" y="120" width="90" height="40" as="geometry" />
        </mxCell>
        <mxCell id="oiKYJzelcAts1kUPNvWA-20" style="edgeStyle=orthogonalEdgeStyle;rounded=0;orthogonalLoop=1;jettySize=auto;html=1;exitX=1;exitY=0.5;exitDx=0;exitDy=0;entryX=0;entryY=0.5;entryDx=0;entryDy=0;" edge="1" parent="WIyWlLk6GJQsqaUBKTNV-1" source="oiKYJzelcAts1kUPNvWA-1" target="oiKYJzelcAts1kUPNvWA-0">
          <mxGeometry relative="1" as="geometry" />
        </mxCell>
        <mxCell id="oiKYJzelcAts1kUPNvWA-1" value="Demography" style="rounded=1;whiteSpace=wrap;html=1;" vertex="1" parent="WIyWlLk6GJQsqaUBKTNV-1">
          <mxGeometry x="120" y="120" width="90" height="40" as="geometry" />
        </mxCell>
        <mxCell id="oiKYJzelcAts1kUPNvWA-22" style="edgeStyle=orthogonalEdgeStyle;rounded=0;orthogonalLoop=1;jettySize=auto;html=1;entryX=0;entryY=0.5;entryDx=0;entryDy=0;" edge="1" parent="WIyWlLk6GJQsqaUBKTNV-1" source="oiKYJzelcAts1kUPNvWA-2" target="oiKYJzelcAts1kUPNvWA-19">
          <mxGeometry relative="1" as="geometry" />
        </mxCell>
        <mxCell id="oiKYJzelcAts1kUPNvWA-2" value="Politics" style="rounded=1;whiteSpace=wrap;html=1;" vertex="1" parent="WIyWlLk6GJQsqaUBKTNV-1">
          <mxGeometry x="360" y="120" width="90" height="40" as="geometry" />
        </mxCell>
        <mxCell id="oiKYJzelcAts1kUPNvWA-11" style="edgeStyle=orthogonalEdgeStyle;rounded=0;orthogonalLoop=1;jettySize=auto;html=1;exitX=0.5;exitY=1;exitDx=0;exitDy=0;entryX=0.5;entryY=0;entryDx=0;entryDy=0;" edge="1" parent="WIyWlLk6GJQsqaUBKTNV-1" source="oiKYJzelcAts1kUPNvWA-3" target="oiKYJzelcAts1kUPNvWA-4">
          <mxGeometry relative="1" as="geometry" />
        </mxCell>
        <mxCell id="oiKYJzelcAts1kUPNvWA-3" value="Culture information" style="rounded=1;whiteSpace=wrap;html=1;" vertex="1" parent="WIyWlLk6GJQsqaUBKTNV-1">
          <mxGeometry x="600" y="120" width="90" height="40" as="geometry" />
        </mxCell>
        <mxCell id="oiKYJzelcAts1kUPNvWA-29" style="edgeStyle=orthogonalEdgeStyle;rounded=0;orthogonalLoop=1;jettySize=auto;html=1;entryX=1;entryY=0.5;entryDx=0;entryDy=0;" edge="1" parent="WIyWlLk6GJQsqaUBKTNV-1" source="oiKYJzelcAts1kUPNvWA-4" target="oiKYJzelcAts1kUPNvWA-13">
          <mxGeometry relative="1" as="geometry" />
        </mxCell>
        <mxCell id="oiKYJzelcAts1kUPNvWA-4" value="Culture note" style="rounded=1;whiteSpace=wrap;html=1;" vertex="1" parent="WIyWlLk6GJQsqaUBKTNV-1">
          <mxGeometry x="600" y="260" width="90" height="40" as="geometry" />
        </mxCell>
        <mxCell id="oiKYJzelcAts1kUPNvWA-7" style="edgeStyle=orthogonalEdgeStyle;rounded=0;orthogonalLoop=1;jettySize=auto;html=1;" edge="1" parent="WIyWlLk6GJQsqaUBKTNV-1" source="oiKYJzelcAts1kUPNvWA-6" target="oiKYJzelcAts1kUPNvWA-1">
          <mxGeometry relative="1" as="geometry" />
        </mxCell>
        <mxCell id="oiKYJzelcAts1kUPNvWA-6" value="Start" style="rounded=1;whiteSpace=wrap;html=1;" vertex="1" parent="WIyWlLk6GJQsqaUBKTNV-1">
          <mxGeometry x="120" y="40" width="90" height="40" as="geometry" />
        </mxCell>
        <mxCell id="oiKYJzelcAts1kUPNvWA-36" style="edgeStyle=orthogonalEdgeStyle;rounded=0;orthogonalLoop=1;jettySize=auto;html=1;entryX=1;entryY=0.5;entryDx=0;entryDy=0;" edge="1" parent="WIyWlLk6GJQsqaUBKTNV-1" source="oiKYJzelcAts1kUPNvWA-13" target="oiKYJzelcAts1kUPNvWA-35">
          <mxGeometry relative="1" as="geometry" />
        </mxCell>
        <mxCell id="oiKYJzelcAts1kUPNvWA-13" value="Whisky" style="rounded=1;whiteSpace=wrap;html=1;" vertex="1" parent="WIyWlLk6GJQsqaUBKTNV-1">
          <mxGeometry x="475" y="260" width="90" height="40" as="geometry" />
        </mxCell>
        <mxCell id="oiKYJzelcAts1kUPNvWA-53" style="edgeStyle=orthogonalEdgeStyle;rounded=0;orthogonalLoop=1;jettySize=auto;html=1;entryX=0;entryY=0.5;entryDx=0;entryDy=0;" edge="1" parent="WIyWlLk6GJQsqaUBKTNV-1" source="oiKYJzelcAts1kUPNvWA-14" target="oiKYJzelcAts1kUPNvWA-31">
          <mxGeometry relative="1" as="geometry" />
        </mxCell>
        <mxCell id="oiKYJzelcAts1kUPNvWA-14" value="Monster v0.1" style="rounded=1;whiteSpace=wrap;html=1;" vertex="1" parent="WIyWlLk6GJQsqaUBKTNV-1">
          <mxGeometry x="475" y="400" width="90" height="40" as="geometry" />
        </mxCell>
        <mxCell id="oiKYJzelcAts1kUPNvWA-58" style="edgeStyle=orthogonalEdgeStyle;rounded=0;orthogonalLoop=1;jettySize=auto;html=1;entryX=1;entryY=0.5;entryDx=0;entryDy=0;exitX=1;exitY=0.5;exitDx=0;exitDy=0;" edge="1" parent="WIyWlLk6GJQsqaUBKTNV-1" source="oiKYJzelcAts1kUPNvWA-15" target="oiKYJzelcAts1kUPNvWA-31">
          <mxGeometry relative="1" as="geometry" />
        </mxCell>
        <mxCell id="oiKYJzelcAts1kUPNvWA-15" value="Revise" style="rounded=1;whiteSpace=wrap;html=1;" vertex="1" parent="WIyWlLk6GJQsqaUBKTNV-1">
          <mxGeometry x="595" y="330" width="90" height="40" as="geometry" />
        </mxCell>
        <mxCell id="oiKYJzelcAts1kUPNvWA-46" style="edgeStyle=orthogonalEdgeStyle;rounded=0;orthogonalLoop=1;jettySize=auto;html=1;exitX=0;exitY=0.5;exitDx=0;exitDy=0;entryX=1;entryY=0.5;entryDx=0;entryDy=0;" edge="1" parent="WIyWlLk6GJQsqaUBKTNV-1" source="oiKYJzelcAts1kUPNvWA-16" target="oiKYJzelcAts1kUPNvWA-38">
          <mxGeometry relative="1" as="geometry" />
        </mxCell>
        <mxCell id="oiKYJzelcAts1kUPNvWA-49" style="edgeStyle=orthogonalEdgeStyle;rounded=0;orthogonalLoop=1;jettySize=auto;html=1;" edge="1" parent="WIyWlLk6GJQsqaUBKTNV-1" source="oiKYJzelcAts1kUPNvWA-16" target="oiKYJzelcAts1kUPNvWA-48">
          <mxGeometry relative="1" as="geometry" />
        </mxCell>
        <mxCell id="oiKYJzelcAts1kUPNvWA-16" value="Stuga?" style="rhombus;whiteSpace=wrap;html=1;" vertex="1" parent="WIyWlLk6GJQsqaUBKTNV-1">
          <mxGeometry x="220" y="330" width="80" height="40" as="geometry" />
        </mxCell>
        <mxCell id="oiKYJzelcAts1kUPNvWA-43" style="edgeStyle=orthogonalEdgeStyle;rounded=0;orthogonalLoop=1;jettySize=auto;html=1;entryX=0.5;entryY=0;entryDx=0;entryDy=0;exitX=0.5;exitY=0;exitDx=0;exitDy=0;" edge="1" parent="WIyWlLk6GJQsqaUBKTNV-1" source="oiKYJzelcAts1kUPNvWA-17" target="oiKYJzelcAts1kUPNvWA-35">
          <mxGeometry relative="1" as="geometry" />
        </mxCell>
        <mxCell id="oiKYJzelcAts1kUPNvWA-17" value="Relax" style="rounded=1;whiteSpace=wrap;html=1;" vertex="1" parent="WIyWlLk6GJQsqaUBKTNV-1">
          <mxGeometry x="215" y="260" width="90" height="40" as="geometry" />
        </mxCell>
        <mxCell id="oiKYJzelcAts1kUPNvWA-40" style="edgeStyle=orthogonalEdgeStyle;rounded=0;orthogonalLoop=1;jettySize=auto;html=1;" edge="1" parent="WIyWlLk6GJQsqaUBKTNV-1" source="oiKYJzelcAts1kUPNvWA-18" target="oiKYJzelcAts1kUPNvWA-16">
          <mxGeometry relative="1" as="geometry" />
        </mxCell>
        <mxCell id="oiKYJzelcAts1kUPNvWA-18" value="Eat" style="rounded=1;whiteSpace=wrap;html=1;" vertex="1" parent="WIyWlLk6GJQsqaUBKTNV-1">
          <mxGeometry x="355" y="330" width="90" height="40" as="geometry" />
        </mxCell>
        <mxCell id="oiKYJzelcAts1kUPNvWA-25" style="edgeStyle=orthogonalEdgeStyle;rounded=0;orthogonalLoop=1;jettySize=auto;html=1;exitX=0.5;exitY=1;exitDx=0;exitDy=0;entryX=0.5;entryY=0;entryDx=0;entryDy=0;" edge="1" parent="WIyWlLk6GJQsqaUBKTNV-1" source="oiKYJzelcAts1kUPNvWA-19" target="oiKYJzelcAts1kUPNvWA-24">
          <mxGeometry relative="1" as="geometry" />
        </mxCell>
        <mxCell id="oiKYJzelcAts1kUPNvWA-26" value="yes!" style="edgeLabel;html=1;align=center;verticalAlign=middle;resizable=0;points=[];" vertex="1" connectable="0" parent="oiKYJzelcAts1kUPNvWA-25">
          <mxGeometry x="-0.14" y="-4" relative="1" as="geometry">
            <mxPoint as="offset" />
          </mxGeometry>
        </mxCell>
        <mxCell id="oiKYJzelcAts1kUPNvWA-27" style="edgeStyle=orthogonalEdgeStyle;rounded=0;orthogonalLoop=1;jettySize=auto;html=1;entryX=0;entryY=0.5;entryDx=0;entryDy=0;" edge="1" parent="WIyWlLk6GJQsqaUBKTNV-1" source="oiKYJzelcAts1kUPNvWA-19" target="oiKYJzelcAts1kUPNvWA-3">
          <mxGeometry relative="1" as="geometry" />
        </mxCell>
        <mxCell id="oiKYJzelcAts1kUPNvWA-19" value="Fika?" style="rhombus;whiteSpace=wrap;html=1;" vertex="1" parent="WIyWlLk6GJQsqaUBKTNV-1">
          <mxGeometry x="480" y="120" width="80" height="40" as="geometry" />
        </mxCell>
        <mxCell id="oiKYJzelcAts1kUPNvWA-28" style="edgeStyle=orthogonalEdgeStyle;rounded=0;orthogonalLoop=1;jettySize=auto;html=1;entryX=0.25;entryY=1;entryDx=0;entryDy=0;" edge="1" parent="WIyWlLk6GJQsqaUBKTNV-1" source="oiKYJzelcAts1kUPNvWA-24" target="oiKYJzelcAts1kUPNvWA-3">
          <mxGeometry relative="1" as="geometry" />
        </mxCell>
        <mxCell id="oiKYJzelcAts1kUPNvWA-24" value="Fika!" style="rounded=1;whiteSpace=wrap;html=1;" vertex="1" parent="WIyWlLk6GJQsqaUBKTNV-1">
          <mxGeometry x="475" y="200" width="90" height="40" as="geometry" />
        </mxCell>
        <mxCell id="oiKYJzelcAts1kUPNvWA-56" style="edgeStyle=orthogonalEdgeStyle;rounded=0;orthogonalLoop=1;jettySize=auto;html=1;entryX=0.5;entryY=0;entryDx=0;entryDy=0;" edge="1" parent="WIyWlLk6GJQsqaUBKTNV-1" source="oiKYJzelcAts1kUPNvWA-31" target="oiKYJzelcAts1kUPNvWA-55">
          <mxGeometry relative="1" as="geometry" />
        </mxCell>
        <mxCell id="oiKYJzelcAts1kUPNvWA-57" style="edgeStyle=orthogonalEdgeStyle;rounded=0;orthogonalLoop=1;jettySize=auto;html=1;" edge="1" parent="WIyWlLk6GJQsqaUBKTNV-1" source="oiKYJzelcAts1kUPNvWA-31" target="oiKYJzelcAts1kUPNvWA-15">
          <mxGeometry relative="1" as="geometry" />
        </mxCell>
        <mxCell id="oiKYJzelcAts1kUPNvWA-31" value="Revise?" style="rhombus;whiteSpace=wrap;html=1;" vertex="1" parent="WIyWlLk6GJQsqaUBKTNV-1">
          <mxGeometry x="600" y="400" width="80" height="40" as="geometry" />
        </mxCell>
        <mxCell id="oiKYJzelcAts1kUPNvWA-37" style="edgeStyle=orthogonalEdgeStyle;rounded=0;orthogonalLoop=1;jettySize=auto;html=1;exitX=0.5;exitY=1;exitDx=0;exitDy=0;entryX=0.5;entryY=0;entryDx=0;entryDy=0;" edge="1" parent="WIyWlLk6GJQsqaUBKTNV-1" source="oiKYJzelcAts1kUPNvWA-35" target="oiKYJzelcAts1kUPNvWA-18">
          <mxGeometry relative="1" as="geometry" />
        </mxCell>
        <mxCell id="oiKYJzelcAts1kUPNvWA-45" value="Yes" style="edgeLabel;html=1;align=center;verticalAlign=middle;resizable=0;points=[];" vertex="1" connectable="0" parent="oiKYJzelcAts1kUPNvWA-37">
          <mxGeometry x="-0.1867" y="-1" relative="1" as="geometry">
            <mxPoint as="offset" />
          </mxGeometry>
        </mxCell>
        <mxCell id="oiKYJzelcAts1kUPNvWA-42" style="edgeStyle=orthogonalEdgeStyle;rounded=0;orthogonalLoop=1;jettySize=auto;html=1;exitX=0;exitY=0.5;exitDx=0;exitDy=0;entryX=1;entryY=0.5;entryDx=0;entryDy=0;" edge="1" parent="WIyWlLk6GJQsqaUBKTNV-1" source="oiKYJzelcAts1kUPNvWA-35" target="oiKYJzelcAts1kUPNvWA-17">
          <mxGeometry relative="1" as="geometry" />
        </mxCell>
        <mxCell id="oiKYJzelcAts1kUPNvWA-44" value="No" style="edgeLabel;html=1;align=center;verticalAlign=middle;resizable=0;points=[];" vertex="1" connectable="0" parent="oiKYJzelcAts1kUPNvWA-42">
          <mxGeometry x="-0.3236" y="-1" relative="1" as="geometry">
            <mxPoint as="offset" />
          </mxGeometry>
        </mxCell>
        <mxCell id="oiKYJzelcAts1kUPNvWA-35" value="Dinner?" style="rhombus;whiteSpace=wrap;html=1;" vertex="1" parent="WIyWlLk6GJQsqaUBKTNV-1">
          <mxGeometry x="360" y="260" width="80" height="40" as="geometry" />
        </mxCell>
        <mxCell id="oiKYJzelcAts1kUPNvWA-50" style="edgeStyle=orthogonalEdgeStyle;rounded=0;orthogonalLoop=1;jettySize=auto;html=1;entryX=0;entryY=0.5;entryDx=0;entryDy=0;exitX=0.431;exitY=1;exitDx=0;exitDy=0;exitPerimeter=0;" edge="1" parent="WIyWlLk6GJQsqaUBKTNV-1" source="oiKYJzelcAts1kUPNvWA-38" target="oiKYJzelcAts1kUPNvWA-48">
          <mxGeometry relative="1" as="geometry" />
        </mxCell>
        <mxCell id="oiKYJzelcAts1kUPNvWA-38" value="Stuga" style="rounded=1;whiteSpace=wrap;html=1;" vertex="1" parent="WIyWlLk6GJQsqaUBKTNV-1">
          <mxGeometry x="80" y="330" width="90" height="40" as="geometry" />
        </mxCell>
        <mxCell id="oiKYJzelcAts1kUPNvWA-52" style="edgeStyle=orthogonalEdgeStyle;rounded=0;orthogonalLoop=1;jettySize=auto;html=1;" edge="1" parent="WIyWlLk6GJQsqaUBKTNV-1" source="oiKYJzelcAts1kUPNvWA-47" target="oiKYJzelcAts1kUPNvWA-14">
          <mxGeometry relative="1" as="geometry" />
        </mxCell>
        <mxCell id="oiKYJzelcAts1kUPNvWA-47" value="Sleep" style="rounded=1;whiteSpace=wrap;html=1;" vertex="1" parent="WIyWlLk6GJQsqaUBKTNV-1">
          <mxGeometry x="355" y="400" width="90" height="40" as="geometry" />
        </mxCell>
        <mxCell id="oiKYJzelcAts1kUPNvWA-51" style="edgeStyle=orthogonalEdgeStyle;rounded=0;orthogonalLoop=1;jettySize=auto;html=1;entryX=0;entryY=0.5;entryDx=0;entryDy=0;" edge="1" parent="WIyWlLk6GJQsqaUBKTNV-1" source="oiKYJzelcAts1kUPNvWA-48" target="oiKYJzelcAts1kUPNvWA-47">
          <mxGeometry relative="1" as="geometry" />
        </mxCell>
        <mxCell id="oiKYJzelcAts1kUPNvWA-48" value="Relax" style="rounded=1;whiteSpace=wrap;html=1;" vertex="1" parent="WIyWlLk6GJQsqaUBKTNV-1">
          <mxGeometry x="215" y="400" width="90" height="40" as="geometry" />
        </mxCell>
        <mxCell id="oiKYJzelcAts1kUPNvWA-55" value="Done" style="rounded=1;whiteSpace=wrap;html=1;" vertex="1" parent="WIyWlLk6GJQsqaUBKTNV-1">
          <mxGeometry x="595" y="480" width="90" height="40" as="geometry" />
        </mxCell>
      </root>
    </mxGraphModel>
  </diagram>
</mxfile>
